<svg width="120" height="57" viewBox="0 0 120 57" fill="none" xmlns="http://www.w3.org/2000/svg">
<path d="M70.499 21.8721C69.7536 17.6307 70.811 8.83919 81.0021 7.60471C81.9594 11.6546 81.1308 20.1887 70.499 21.8721Z" fill="#F7C11F"/>
<path d="M78.5621 13.7975C78.4894 9.4917 80.9086 0.973775 91.1674 1.34819C91.4795 5.49797 89.3267 13.7975 78.5621 13.7975Z" fill="#5D92C3"/>
<path d="M60.8734 22.8128C55.8913 20.8335 47.2563 13.9893 52.5732 2.44699C57.49 4.07829 66.0006 10.5137 60.8734 22.8128Z" fill="#F7C11F"/>
<path d="M63.2581 23.5013C60.4441 18.4395 57.9611 6.78047 70.5397 0.638611C73.5423 5.36172 76.2074 16.5907 63.2581 23.5013Z" fill="#EA2E1F"/>
<path d="M40.202 20.4527C35.8525 19.145 27.9729 14.2728 31.2493 5.24619C35.5096 6.29093 43.2451 10.856 40.202 20.4527Z" fill="#352C4E"/>
<path d="M29.1582 15.145C26.0871 14.7164 20.2761 12.1705 21.6003 5.41513C24.585 5.66793 30.2681 8.01328 29.1582 15.145Z" fill="#3A8F2B"/>
<path d="M22.208 16.8227C19.1257 17.1611 12.8676 16.1193 12.4932 9.2456C15.4486 8.75806 21.5335 9.63676 22.208 16.8227Z" fill="#3A8F2B"/>
<path d="M9.63892 9.80994C8.44143 9.94944 5.99982 9.49127 5.81348 6.54257C6.96077 6.33885 9.334 6.7268 9.63892 9.80994Z" fill="#5D92C3"/>
<path d="M42.3391 10.2989C39.6152 9.48489 34.7307 6.28546 36.9831 0C39.6559 0.634587 44.4552 3.62534 42.3391 10.2989Z" fill="#CB256C"/>
<path d="M60.7877 38.6497C54.0295 36.4231 42.0183 28.1151 48.0373 12.6926C54.6789 14.4698 66.4903 22.2539 60.7877 38.6497Z" fill="#CB256C"/>
<path d="M47.903 22.2346C44.4807 21.5356 38.1437 18.1941 40.1753 10.4203C43.5146 10.9091 49.7235 14.0089 47.903 22.2346Z" fill="#3A8F2B"/>
<path d="M52.0319 18.7587C48.2223 17.2533 41.7202 11.7947 46.1876 2.004C49.9568 3.22088 56.3746 8.34188 52.0319 18.7587Z" fill="#5D92C3"/>
<path d="M59.9623 38.9216C57.3003 32.3229 55.8925 17.7861 71.5571 12.4283C74.4867 18.648 76.1658 32.694 59.9623 38.9216Z" fill="#5D92C3"/>
<path d="M94.4014 17.1395C94.7116 14.994 96.9468 11.0197 103.405 12.2873C103.259 14.3807 101.21 18.2745 94.4014 17.1395Z" fill="#EA2E1F"/>
<path d="M31.0501 28.384C26.6804 28.8863 17.7941 27.4336 17.2061 17.6033C21.3946 16.8883 30.0338 18.1089 31.0501 28.384Z" fill="#F7C11F"/>
<path d="M37.2262 30.3722C35.5585 31.0252 31.9031 31.3618 30.623 27.4846C32.1969 26.7652 35.7301 26.361 37.2262 30.3722Z" fill="#5D92C3"/>
<path d="M89.3916 14.1091C89.5383 10.5156 91.9659 3.53044 100.501 4.33718C100.561 7.81207 98.3663 14.628 89.3916 14.1091Z" fill="#F7C11F"/>
<path d="M77.5977 21.0057C77.7571 18.6912 80.5888 14.3643 90.64 15.573C90.7236 17.8273 88.1651 22.0633 77.5977 21.0057Z" fill="#EA2E1F"/>
<path d="M18.2498 22.2766C16.5928 22.4684 13.2185 21.8745 12.9775 17.9644C14.5654 17.6877 17.8455 18.1888 18.2498 22.2766Z" fill="#EA2E1F"/>
<path d="M39.9339 29.621C36.8374 29.462 30.8263 27.4328 31.556 20.5877C34.5515 20.5791 40.4176 22.4197 39.9339 29.621Z" fill="#EA2E1F"/>
<path d="M81.3408 34.6566C81.2895 31.0606 83.3283 23.9523 91.8952 24.2874C92.1466 27.7537 90.3304 34.6802 81.3408 34.6566Z" fill="#CB256C"/>
<path d="M77.9092 32.0186C78.0559 28.4253 80.4835 21.44 89.0187 22.2468C89.079 25.7217 86.8839 32.5377 77.9092 32.0186Z" fill="#5D92C3"/>
<path d="M95.8184 24.6721C96.4609 22.0566 99.2842 17.2918 105.437 19.1565C104.963 21.7158 102.336 26.391 95.8184 24.6721Z" fill="#F7C11F"/>
<path d="M60.4717 54.8072C60.3461 56.1453 60.0362 56.3753 59.8967 56.3228L59.2694 53.2393C57.1371 44.8347 51.6909 41.8625 49.2347 41.427C48.4402 40.6325 38.7991 39.9462 34.0775 39.7022C27.0531 38.7821 22.3701 36.2525 20.9067 35.1027C16.2028 32.1756 14.3735 29.1442 14.0077 28.9352C13.715 28.7679 12.0739 26.3915 11.2899 25.2242L10.2968 23.5517C9.62781 22.3809 8.17136 19.9279 7.52675 18.8477C5.31068 15.2517 2.73575 12.0878 1.72528 10.9554C1.51622 10.7881 0.6974 9.38737 0.314121 8.70792C-0.898437 5.78097 1.69045 6.61724 3.13645 7.40126C4.34902 7.90301 7.12605 10.5372 8.36302 11.7916C8.53025 12.0007 11.5338 15.3981 13.0146 17.0706C13.4327 17.656 15.5582 19.7536 16.5687 20.7293C17.0286 21.0638 17.945 21.8443 18.3457 22.1928C19.0565 22.9036 21.2552 24.3705 22.2656 25.0152C26.3214 27.9421 31.1681 28.2557 33.0847 28.0466C38.6039 27.0013 38.3459 25.2765 37.5271 24.5447C36.5654 24.1266 35.001 23.8827 34.3389 23.813C33.2519 23.9385 31.2728 23.7608 30.419 23.6562C29.4086 23.6562 26.5723 23.3635 23.3109 22.1928C20.0495 21.022 18.2238 17.8023 17.7185 16.3389C16.046 10.9031 20.2795 13.7255 20.3841 13.7778C20.4677 13.8196 21.1855 14.3179 21.5339 14.5618C21.8467 14.9528 22.2752 15.1 22.4862 15.1318C22.4877 15.1275 22.5036 15.1301 22.527 15.1367C22.5145 15.1356 22.5009 15.134 22.4862 15.1318C22.4801 15.1498 22.733 15.2905 23.7813 15.7639C25.0775 16.3493 27.318 16.6002 28.2761 16.6525L33.2413 17.0706L38.3633 17.4887L42.3354 17.8023L43.5377 18.0114C45.0708 18.3598 49.0361 19.9557 52.6318 23.5517C56.2276 27.1476 58.2766 33.2035 58.8513 35.7822C59.8131 39.0018 60.3322 38.7613 60.4717 38.2387C62.3952 30.6286 66.2906 25.2068 67.998 23.4472C71.8029 18.9313 77.7367 17.5584 80.2281 17.4365L82.214 17.3319C83.3013 17.1647 85.176 17.088 85.9773 17.0706C86.6882 17.1124 89.3048 16.9487 90.5242 16.8615C90.6078 16.7779 93.5209 16.3737 94.967 16.1821C96.472 15.973 98.103 14.9451 98.7299 14.4573C99.148 13.9973 99.9496 13.5339 100.298 13.3597C102.89 12.3143 103.051 13.7952 102.807 14.6663C102.807 15.628 101.866 17.6107 101.396 18.4818C99.263 21.8269 94.7229 23.151 92.7196 23.3949C92.7196 23.4785 88.3639 23.7782 86.1862 23.9175C80.9178 24.0848 81.8307 25.7992 82.9457 26.6354C87.1271 29.0606 92.3538 27.7853 94.4441 26.8445C94.7786 26.8445 97.9982 24.8932 99.5664 23.9175C104.082 20.3634 106.709 17.6281 107.458 16.7047C107.626 16.5793 110.629 13.168 112.11 11.478C113.992 9.42921 116.135 7.94133 116.971 7.45351C120.023 5.82278 120.194 7.40123 119.897 8.39431C119.521 9.60691 117.894 11.6174 117.127 12.4711C116.918 12.6802 115.438 14.7534 114.723 15.7639C112.842 18.3146 110.106 22.9245 108.974 24.9106C106.173 29.3428 103.382 32.0189 102.336 32.8029C96.5245 37.9879 89.0086 39.5626 85.9773 39.7022C85.392 39.8274 83.8866 39.9284 83.2071 39.9636C80.6984 40.0052 77.3187 40.3294 75.9423 40.4861C75.7751 40.4861 74.3393 40.6953 73.6424 40.7997C72.0118 40.9253 70.2105 41.5488 69.5136 41.8451C67.2557 42.8484 65.9247 43.9705 65.5414 44.406C63.7436 46.0786 62.388 48.7269 61.9351 49.8419C60.9734 52.3926 60.5588 54.2147 60.4717 54.8072Z" fill="white"/>
</svg>
