<svg width="131" height="24" viewBox="0 0 131 24" fill="none" xmlns="http://www.w3.org/2000/svg">
<path d="M6.18477 10.4867L7.99589 22.7562H4.75693L4.59912 20.5511H3.46439L3.27649 22.7562H0L1.60819 10.4867H6.18477ZM4.50895 18.3761C4.34864 16.9866 4.18833 15.2714 4.02798 13.2302C3.70736 15.5745 3.50698 17.2897 3.42678 18.3761H4.50895Z" fill="black"/>
<path d="M20.156 10.4867L18.7507 22.7562H14.7979C14.4372 20.8716 14.119 18.7297 13.8435 16.3298C13.7182 17.3555 13.4251 19.4973 12.9642 22.7562H9.0339L7.62109 10.4867H10.6947L11.0179 14.7687L11.3485 18.8987C11.4637 16.7615 11.7543 13.9578 12.2203 10.4867H15.5118C15.5569 10.8455 15.6721 12.1947 15.8575 14.5335L16.2032 19.1942C16.3785 16.2287 16.6716 13.3261 17.0824 10.4867H20.156Z" fill="black"/>
<path d="M20.7861 10.4867H23.1533C24.6814 10.4867 25.7134 10.5576 26.2495 10.699C26.7906 10.8404 27.2014 11.073 27.4819 11.3961C27.7625 11.7196 27.9378 12.0809 28.008 12.48C28.0781 12.874 28.1132 13.6522 28.1132 14.8141V19.111C28.1132 20.2123 28.0606 20.9501 27.9554 21.3237C27.8552 21.6927 27.6773 21.983 27.4218 22.1953C27.1663 22.4025 26.8507 22.549 26.4749 22.6347C26.0992 22.7158 25.5331 22.7562 24.7766 22.7562H20.7861V10.4867ZM23.9499 12.5861V20.6572C24.4058 20.6572 24.6864 20.5659 24.7916 20.3842C24.8968 20.1974 24.9494 19.6947 24.9494 18.8762V14.1094C24.9494 13.5537 24.9319 13.1975 24.8968 13.0408C24.8617 12.8841 24.7816 12.7704 24.6564 12.6999C24.5311 12.6239 24.2956 12.5861 23.9499 12.5861Z" fill="black"/>
<path d="M36.5225 17.6709C36.5225 18.9038 36.4928 19.778 36.4325 20.2934C36.3773 20.8037 36.1969 21.2707 35.8912 21.6952C35.5906 22.1198 35.1826 22.4454 34.6664 22.6729C34.1505 22.9001 33.5494 23.0139 32.8629 23.0139C32.2116 23.0139 31.6253 22.9077 31.1044 22.6955C30.5882 22.4785 30.1725 22.155 29.8571 21.7254C29.5412 21.2961 29.3534 20.8287 29.2933 20.3235C29.2332 19.8183 29.2031 18.9344 29.2031 17.6709V15.572C29.2031 14.3391 29.2307 13.4675 29.2858 12.9572C29.3459 12.4422 29.5264 11.9722 29.827 11.5477C30.1326 11.1236 30.5432 10.7975 31.0594 10.5704C31.5752 10.3428 32.1764 10.229 32.8629 10.229C33.5142 10.229 34.0979 10.3377 34.6137 10.5551C35.1351 10.7674 35.5533 11.0879 35.8687 11.5175C36.1846 11.9468 36.3722 12.4142 36.4325 12.9194C36.4928 13.4246 36.5225 14.3089 36.5225 15.572V17.6709ZM33.3588 13.6394C33.3588 13.0684 33.3265 12.7046 33.2611 12.5483C33.2013 12.3866 33.0735 12.3055 32.8778 12.3055C32.7126 12.3055 32.5848 12.3713 32.4948 12.5025C32.4095 12.629 32.367 13.0081 32.367 13.6394V19.3687C32.367 20.0811 32.3946 20.5205 32.4494 20.6873C32.5097 20.8542 32.6451 20.9374 32.8553 20.9374C33.0709 20.9374 33.2085 20.8415 33.2688 20.6496C33.3286 20.4572 33.3588 20 33.3588 19.2778V13.6394Z" fill="black"/>
<path d="M37.71 10.4867H39.9495C41.4426 10.4867 42.4517 10.5449 42.9782 10.6612C43.5089 10.7775 43.9398 11.0756 44.2705 11.5553C44.6063 12.0304 44.774 12.7907 44.774 13.8364C44.774 14.7912 44.6564 15.4331 44.4208 15.7613C44.1856 16.0899 43.722 16.2869 43.0304 16.3523C43.657 16.5089 44.0778 16.7187 44.293 16.9815C44.5087 17.2443 44.6411 17.4867 44.6912 17.7091C44.7464 17.9261 44.774 18.5298 44.774 19.5202V22.7562H41.8357V18.6792C41.8357 18.0224 41.7831 17.6157 41.6778 17.4591C41.5776 17.3024 41.3097 17.2239 40.8737 17.2239V22.7562H37.71V10.4867ZM40.8737 12.5861V15.3143C41.2295 15.3143 41.4774 15.2663 41.6179 15.1703C41.7631 15.0693 41.8357 14.7483 41.8357 14.2079V13.5333C41.8357 13.1444 41.7657 12.8892 41.6251 12.7678C41.4901 12.6468 41.2397 12.5861 40.8737 12.5861Z" fill="black"/>
<path d="M53.2663 15.0035H50.1026V13.8895C50.1026 13.1873 50.0725 12.7479 50.0126 12.5708C49.9523 12.3942 49.8097 12.3055 49.5842 12.3055C49.3889 12.3055 49.2561 12.3815 49.186 12.5331C49.1155 12.6846 49.0807 13.0735 49.0807 13.7001V19.5886C49.0807 20.1393 49.1155 20.5031 49.186 20.6797C49.2561 20.8516 49.3962 20.9374 49.6067 20.9374C49.8373 20.9374 49.9926 20.8389 50.0725 20.6419C50.1578 20.4449 50.2002 20.0607 50.2002 19.4901V18.0348H49.5617V16.1706H53.2663V22.7562H51.2748L50.9818 21.8769C50.7666 22.256 50.4936 22.5413 50.1629 22.7337C49.8373 22.9205 49.4513 23.0139 49.0056 23.0139C48.4745 23.0139 47.976 22.8852 47.5099 22.6275C47.0493 22.3647 46.6986 22.0412 46.4579 21.6574C46.2176 21.2732 46.0673 20.8716 46.007 20.4526C45.9467 20.028 45.917 19.3937 45.917 18.5502V14.905C45.917 13.7328 45.9794 12.8816 46.1046 12.3509C46.2299 11.8207 46.5882 11.3358 47.1792 10.896C47.7757 10.4515 48.5445 10.229 49.4866 10.229C50.4134 10.229 51.1822 10.4214 51.7936 10.8051C52.4049 11.1889 52.8032 11.6462 52.9883 12.1769C53.1738 12.7024 53.2663 13.4675 53.2663 14.4732V15.0035Z" fill="black"/>
<path d="M57.2178 10.4867H62.576V12.9423H60.3815V15.2688H62.3353V17.603H60.3815V22.7562H57.2178V10.4867Z" fill="black"/>
<path d="M70.579 17.6709C70.579 18.9038 70.5492 19.778 70.489 20.2934C70.4338 20.8037 70.2533 21.2707 69.9481 21.6952C69.6475 22.1198 69.2391 22.4454 68.7228 22.6729C68.207 22.9001 67.6059 23.0139 66.9194 23.0139C66.2681 23.0139 65.6818 22.9077 65.1609 22.6955C64.6451 22.4785 64.229 22.155 63.9136 21.7254C63.5977 21.2961 63.4101 20.8287 63.3498 20.3235C63.2895 19.8183 63.2598 18.9344 63.2598 17.6709V15.572C63.2598 14.3391 63.2874 13.4675 63.3421 12.9572C63.4024 12.4422 63.5829 11.9722 63.8834 11.5477C64.1891 11.1236 64.5996 10.7975 65.1159 10.5704C65.6317 10.3428 66.2329 10.229 66.9194 10.229C67.5706 10.229 68.1544 10.3377 68.6702 10.5551C69.1915 10.7674 69.6097 11.0879 69.9252 11.5175C70.241 11.9468 70.4287 12.4142 70.489 12.9194C70.5492 13.4246 70.579 14.3089 70.579 15.572V17.6709ZM67.4152 13.6394C67.4152 13.0684 67.383 12.7046 67.3176 12.5483C67.2577 12.3866 67.1299 12.3055 66.9342 12.3055C66.7691 12.3055 66.6413 12.3713 66.5513 12.5025C66.466 12.629 66.4235 13.0081 66.4235 13.6394V19.3687C66.4235 20.0811 66.4511 20.5205 66.5059 20.6873C66.5661 20.8542 66.7016 20.9374 66.9117 20.9374C67.1274 20.9374 67.2649 20.8415 67.3252 20.6496C67.3855 20.4572 67.4152 20 67.4152 19.2778V13.6394Z" fill="black"/>
<path d="M78.9585 10.4867V18.6864C78.9585 19.6162 78.9284 20.2704 78.8685 20.6495C78.8082 21.0231 78.6303 21.4099 78.3349 21.809C78.0394 22.203 77.6484 22.5036 77.1627 22.7107C76.6817 22.9128 76.1128 23.0139 75.4564 23.0139C74.73 23.0139 74.089 22.8924 73.5328 22.65C72.9766 22.4076 72.561 22.0917 72.2855 21.7028C72.0099 21.314 71.8469 20.9047 71.7968 20.4751C71.7467 20.0407 71.7217 19.1314 71.7217 17.7469V10.4867H74.8854V19.6871C74.8854 20.2225 74.913 20.5659 74.9682 20.7175C75.0281 20.8639 75.1461 20.9374 75.3214 20.9374C75.5218 20.9374 75.6496 20.8567 75.7048 20.695C75.7646 20.5281 75.7948 20.1392 75.7948 19.5279V10.4867H78.9585Z" fill="black"/>
<path d="M87.2486 10.4867V22.7562H84.4759L82.8299 17.1784V22.7562H80.1846V10.4867H82.8299L84.6037 16.0114V10.4867H87.2486Z" fill="black"/>
<path d="M88.5244 10.4867H90.8917C92.4201 10.4867 93.4517 10.5576 93.9879 10.699C94.5292 10.8404 94.9397 11.073 95.2204 11.3961C95.501 11.7196 95.6763 12.0809 95.7464 12.48C95.8164 12.874 95.8517 13.6522 95.8517 14.8141V19.111C95.8517 20.2123 95.799 20.9501 95.6937 21.3237C95.5936 21.6927 95.4157 21.983 95.1605 22.1953C94.9049 22.4025 94.5891 22.549 94.2133 22.6347C93.8376 22.7158 93.2717 22.7562 92.5152 22.7562H88.5244V10.4867ZM91.6886 12.5861V20.6572C92.1441 20.6572 92.4247 20.5659 92.53 20.3842C92.6353 20.1974 92.6879 19.6947 92.6879 18.8762V14.1094C92.6879 13.5537 92.6705 13.1975 92.6353 13.0408C92.6001 12.8841 92.5203 12.7704 92.395 12.6999C92.2698 12.6239 92.0341 12.5861 91.6886 12.5861Z" fill="black"/>
<path d="M102.496 10.4867L104.307 22.7562H101.069L100.911 20.5511H99.7758L99.5877 22.7562H96.3115L97.9197 10.4867H102.496ZM100.82 18.3761C100.66 16.9866 100.5 15.2714 100.34 13.2302C100.019 15.5745 99.8183 17.2897 99.738 18.3761H100.82Z" fill="black"/>
<path d="M110.365 10.4867V12.9423H108.486V22.7562H105.322V12.9423H103.451V10.4867H110.365Z" fill="black"/>
<path d="M114.25 10.4867V22.7562H111.086V10.4867H114.25Z" fill="black"/>
<path d="M122.749 17.6709C122.749 18.9038 122.719 19.778 122.659 20.2934C122.604 20.8037 122.424 21.2707 122.118 21.6952C121.817 22.1198 121.409 22.4454 120.893 22.6729C120.377 22.9001 119.776 23.0139 119.09 23.0139C118.438 23.0139 117.852 22.9077 117.331 22.6955C116.815 22.4785 116.399 22.155 116.083 21.7254C115.768 21.2961 115.58 20.8287 115.52 20.3235C115.46 19.8183 115.43 18.9344 115.43 17.6709V15.572C115.43 14.3391 115.457 13.4675 115.512 12.9572C115.572 12.4422 115.753 11.9722 116.053 11.5477C116.359 11.1236 116.77 10.7975 117.286 10.5704C117.802 10.3428 118.403 10.229 119.09 10.229C119.741 10.229 120.324 10.3377 120.841 10.5551C121.361 10.7674 121.78 11.0879 122.096 11.5175C122.411 11.9468 122.599 12.4142 122.659 12.9194C122.719 13.4246 122.749 14.3089 122.749 15.572V17.6709ZM119.586 13.6394C119.586 13.0684 119.553 12.7046 119.488 12.5483C119.428 12.3866 119.3 12.3055 119.105 12.3055C118.939 12.3055 118.812 12.3713 118.721 12.5025C118.636 12.629 118.593 13.0081 118.593 13.6394V19.3687C118.593 20.0811 118.621 20.5205 118.676 20.6873C118.736 20.8542 118.871 20.9374 119.082 20.9374C119.297 20.9374 119.435 20.8415 119.495 20.6496C119.555 20.4572 119.586 20 119.586 19.2778V13.6394Z" fill="black"/>
<path d="M131 10.4867V22.7562H128.226L126.581 17.1784V22.7562H123.936V10.4867H126.581L128.354 16.0114V10.4867H131Z" fill="black"/>
<path d="M23.6532 0.0463562L26.4067 6.63345H25.616L23.4672 0.930343L23.6532 0.0463562ZM21.6533 6.01016C21.6098 6.13418 21.6036 6.23951 21.6346 6.32641C21.6657 6.4133 21.7153 6.48151 21.7835 6.53101C21.8579 6.57446 21.9323 6.59605 22.0067 6.59605H22.0905V6.68927H20.2207V6.59605C20.2207 6.59605 20.2362 6.59605 20.2672 6.59605C20.292 6.59605 20.3044 6.59605 20.3044 6.59605C20.4471 6.59605 20.5928 6.5526 20.7416 6.46597C20.8967 6.37275 21.0238 6.22082 21.123 6.01016H21.6533ZM23.6532 0.0463562L23.737 0.697562L21.4021 6.66136H20.8439L23.2253 1.0046C23.2253 1.0046 23.2408 0.967468 23.2718 0.892947C23.309 0.812369 23.3494 0.716259 23.3928 0.604609C23.4424 0.492959 23.4827 0.384467 23.5137 0.279137C23.5509 0.173543 23.5695 0.0961247 23.5695 0.0463562H23.6532ZM24.9648 4.14923V4.42836H22.0532V4.14923H24.9648ZM25.3834 6.01016H26.1462C26.2392 6.22082 26.3633 6.37275 26.5183 6.46597C26.6733 6.5526 26.8222 6.59605 26.9648 6.59605C26.9648 6.59605 26.9772 6.59605 27.002 6.59605C27.0268 6.59605 27.0392 6.59605 27.0392 6.59605V6.68927H24.9462V6.59605H25.03C25.1478 6.59605 25.2532 6.54655 25.3462 6.44727C25.4392 6.34194 25.4516 6.19606 25.3834 6.01016Z" fill="black"/>
<path d="M28.107 0.0371399L33.5116 5.80529L33.5953 6.81936L28.1907 1.06042L28.107 0.0371399ZM28.1256 6.02859V6.68927H27.3535V6.59606C27.3535 6.59606 27.3814 6.59606 27.4372 6.59606C27.4931 6.59606 27.5241 6.59606 27.5303 6.59606C27.6853 6.59606 27.8186 6.54023 27.9303 6.42858C28.0419 6.31693 28.0977 6.18369 28.0977 6.02859H28.1256ZM28.5256 6.02859C28.5256 6.18369 28.5814 6.31693 28.693 6.42858C28.8047 6.54023 28.938 6.59606 29.093 6.59606C29.0992 6.59606 29.1303 6.59606 29.1861 6.59606C29.2419 6.59606 29.2698 6.59606 29.2698 6.59606V6.68927H28.4977V6.02859H28.5256ZM28.107 0.0371399L28.5163 0.558001L28.5256 6.68927H28.0977V1.19999C28.0977 0.883732 28.0822 0.610928 28.0512 0.381308C28.0264 0.151952 28.014 0.0371399 28.014 0.0371399H28.107ZM33.5953 0.176706V5.6286C33.5953 5.82715 33.6015 6.01937 33.6139 6.20528C33.6263 6.3854 33.6387 6.53418 33.6511 6.65188C33.6697 6.76353 33.679 6.81936 33.679 6.81936H33.5953L33.1767 6.32641V0.176706H33.5953ZM34.3395 0.176706V0.269659C34.3395 0.269659 34.3116 0.269659 34.2558 0.269659C34.2 0.269659 34.172 0.269659 34.172 0.269659C34.017 0.269659 33.8837 0.325485 33.7721 0.437135C33.6604 0.542728 33.6015 0.67597 33.5953 0.837126H33.5674V0.176706H34.3395ZM32.4232 0.176706H33.1953V0.837126H33.1767C33.1705 0.67597 33.1116 0.542728 33 0.437135C32.8945 0.325485 32.7612 0.269659 32.6 0.269659C32.6 0.269659 32.572 0.269659 32.5163 0.269659C32.4604 0.269659 32.4294 0.269659 32.4232 0.269659V0.176706Z" fill="black"/>
<path d="M36.1534 0.18591L37.9766 3.58176L37.5766 3.90749L35.3534 0.18591H36.1534ZM38.1069 3.69341V6.68926H37.5022V3.69341H38.1069ZM39.7627 0.18591H40.3301L38.0417 3.8888L37.7069 3.78636L39.7627 0.18591ZM39.3813 0.846595C39.4371 0.759697 39.4526 0.672798 39.4278 0.585901C39.403 0.492947 39.3565 0.418426 39.2882 0.362864C39.22 0.300719 39.1425 0.26965 39.0557 0.26965C39.0557 0.26965 39.0371 0.26965 38.9999 0.26965C38.9627 0.26965 38.9441 0.26965 38.9441 0.26965V0.176697H41.0092V0.26965H40.8789C40.6867 0.26965 40.5068 0.325475 40.3394 0.437125C40.172 0.548775 40.0386 0.675959 39.9394 0.818682L39.3813 0.846595ZM36.5069 0.846595L35.7255 0.818682C35.6387 0.675959 35.5116 0.548775 35.3441 0.437125C35.1767 0.325475 34.9937 0.26965 34.7953 0.26965H34.665V0.176697H36.9534V0.26965C36.9534 0.26965 36.9317 0.26965 36.8883 0.26965C36.8511 0.26965 36.8325 0.26965 36.8325 0.26965C36.696 0.26965 36.5906 0.334952 36.5162 0.465035C36.448 0.589061 36.4449 0.716249 36.5069 0.846595ZM37.5208 6.01015V6.68926H36.7859V6.59605C36.7859 6.59605 36.8046 6.59605 36.8418 6.59605C36.879 6.59605 36.9007 6.59605 36.9069 6.59605C37.0681 6.59605 37.2046 6.54022 37.3162 6.42857C37.434 6.31086 37.496 6.1713 37.5022 6.01015H37.5208ZM38.0789 6.01015H38.1069C38.1069 6.1713 38.1658 6.31086 38.2836 6.42857C38.4014 6.54022 38.541 6.59605 38.7022 6.59605C38.7022 6.59605 38.7208 6.59605 38.758 6.59605C38.7952 6.59605 38.8138 6.59605 38.8138 6.59605V6.68926H38.0789V6.01015Z" fill="black"/>
<path d="M44.0891 0.204602V6.68926H43.4844V0.204602H44.0891ZM46.4798 0.167476V0.446335H41.0938V0.167476H46.4798ZM46.4798 0.418426V1.17206L46.3866 1.16285V1.00459C46.3866 0.849752 46.331 0.719404 46.2194 0.61381C46.1138 0.50848 45.9866 0.452655 45.8378 0.446335V0.418426H46.4798ZM46.4798 0V0.269646L45.3449 0.167476C45.4813 0.167476 45.624 0.157995 45.7728 0.139562C45.9279 0.120866 46.0703 0.0990098 46.2007 0.0742572C46.331 0.0495046 46.424 0.0247526 46.4798 0ZM43.5123 6.01014V6.68926H42.7682V6.59604C42.7682 6.59604 42.7867 6.59604 42.824 6.59604C42.8674 6.59604 42.8891 6.59604 42.8891 6.59604C43.0503 6.59604 43.1868 6.54022 43.2984 6.42857C43.4162 6.31086 43.4782 6.1713 43.4844 6.01014H43.5123ZM44.0612 6.01014H44.0891C44.0953 6.1713 44.1542 6.31086 44.2658 6.42857C44.3836 6.54022 44.5232 6.59604 44.6844 6.59604C44.6844 6.59604 44.703 6.59604 44.7403 6.59604C44.7837 6.59604 44.8053 6.59604 44.8053 6.59604V6.68926H44.0612V6.01014ZM41.7356 0.418426V0.446335C41.5806 0.452655 41.4503 0.50848 41.3449 0.61381C41.2395 0.719404 41.1868 0.849752 41.1868 1.00459V1.16285L41.0938 1.17206V0.418426H41.7356ZM41.0938 0C41.1558 0.0247526 41.2488 0.0495046 41.3728 0.0742572C41.5031 0.0990098 41.6457 0.120866 41.8007 0.139562C41.9558 0.157995 42.0984 0.167476 42.2286 0.167476L41.0938 0.269646V0Z" fill="black"/>
<path d="M52.946 0.176697V6.68926H52.3415V0.176697H52.946ZM48.5369 0.176697V6.68926H47.9321V0.176697H48.5369ZM52.4252 3.33054V3.60967H48.4437V3.33054H52.4252ZM47.96 6.01015V6.68926H47.2158V6.59605C47.2158 6.59605 47.2345 6.59605 47.2716 6.59605C47.3151 6.59605 47.3369 6.59605 47.3369 6.59605C47.4981 6.59605 47.6345 6.54022 47.7462 6.42857C47.8639 6.31086 47.926 6.1713 47.9321 6.01015H47.96ZM47.96 0.855812H47.9321C47.926 0.694657 47.8639 0.557989 47.7462 0.446339C47.6345 0.328632 47.4981 0.26965 47.3369 0.26965C47.3369 0.26965 47.3151 0.26965 47.2716 0.26965C47.2345 0.26965 47.2158 0.26965 47.2158 0.26965V0.176697H47.96V0.855812ZM48.509 6.01015H48.5369C48.543 6.1713 48.602 6.31086 48.7136 6.42857C48.8313 6.54022 48.9709 6.59605 49.132 6.59605C49.132 6.59605 49.1507 6.59605 49.1879 6.59605C49.2253 6.59605 49.2469 6.59605 49.2532 6.59605V6.68926H48.509V6.01015ZM48.509 0.855812V0.176697H49.2532V0.26965C49.2469 0.26965 49.2253 0.26965 49.1879 0.26965C49.1507 0.26965 49.132 0.26965 49.132 0.26965C48.9709 0.26965 48.8313 0.328632 48.7136 0.446339C48.602 0.557989 48.543 0.694657 48.5369 0.855812H48.509ZM52.3694 6.01015V6.68926H51.6252V6.59605C51.6313 6.59605 51.6531 6.59605 51.6902 6.59605C51.7274 6.59605 51.7461 6.59605 51.7461 6.59605C51.9072 6.59605 52.0468 6.54022 52.1648 6.42857C52.2825 6.31086 52.3415 6.1713 52.3415 6.01015H52.3694ZM52.3694 0.855812H52.3415C52.3415 0.694657 52.2825 0.557989 52.1648 0.446339C52.0468 0.328632 51.9072 0.26965 51.7461 0.26965C51.7461 0.26965 51.7274 0.26965 51.6902 0.26965C51.6531 0.26965 51.6313 0.26965 51.6252 0.26965V0.176697H52.3694V0.855812ZM52.9181 6.01015H52.946C52.9524 6.1713 53.0111 6.31086 53.1227 6.42857C53.2407 6.54022 53.3803 6.59605 53.5414 6.59605C53.5414 6.59605 53.5601 6.59605 53.5973 6.59605C53.6407 6.59605 53.6623 6.59605 53.6623 6.59605V6.68926H52.9181V6.01015ZM52.9181 0.855812V0.176697H53.6623V0.26965C53.6623 0.26965 53.6407 0.26965 53.5973 0.26965C53.5601 0.26965 53.5414 0.26965 53.5414 0.26965C53.3803 0.26965 53.2407 0.328632 53.1227 0.446339C53.0111 0.557989 52.9524 0.694657 52.946 0.855812H52.9181Z" fill="black"/>
<path d="M55.3972 0.0371399L60.8017 5.80529L60.8854 6.81936L55.4809 1.06042L55.3972 0.0371399ZM55.4156 6.02859V6.68927H54.6436V6.59606C54.6436 6.59606 54.6715 6.59606 54.7273 6.59606C54.7831 6.59606 54.8142 6.59606 54.8202 6.59606C54.9753 6.59606 55.1086 6.54023 55.2202 6.42858C55.3319 6.31693 55.3877 6.18369 55.3877 6.02859H55.4156ZM55.8156 6.02859C55.8156 6.18369 55.8714 6.31693 55.9831 6.42858C56.0947 6.54023 56.228 6.59606 56.3831 6.59606C56.3894 6.59606 56.4202 6.59606 56.476 6.59606C56.5319 6.59606 56.5598 6.59606 56.5598 6.59606V6.68927H55.7877V6.02859H55.8156ZM55.3972 0.0371399L55.8064 0.558001L55.8156 6.68927H55.3877V1.19999C55.3877 0.883732 55.3722 0.610928 55.3414 0.381308C55.3163 0.151952 55.304 0.0371399 55.304 0.0371399H55.3972ZM60.8854 0.176706V5.6286C60.8854 5.82715 60.8915 6.01937 60.9041 6.20528C60.9165 6.3854 60.9289 6.53418 60.9412 6.65188C60.9597 6.76353 60.9692 6.81936 60.9692 6.81936H60.8854L60.4667 6.32641V0.176706H60.8854ZM61.6296 0.176706V0.269659C61.6296 0.269659 61.6017 0.269659 61.5458 0.269659C61.49 0.269659 61.4621 0.269659 61.4621 0.269659C61.307 0.269659 61.1738 0.325485 61.0621 0.437135C60.9505 0.542728 60.8915 0.67597 60.8854 0.837126H60.8575V0.176706H61.6296ZM59.7134 0.176706H60.4854V0.837126H60.4667C60.4607 0.67597 60.4017 0.542728 60.29 0.437135C60.1847 0.325485 60.0512 0.269659 59.8901 0.269659C59.8901 0.269659 59.8621 0.269659 59.8063 0.269659C59.7505 0.269659 59.7194 0.269659 59.7134 0.269659V0.176706Z" fill="black"/>
<path d="M63.8345 0.176697V6.68926H63.2299V0.176697H63.8345ZM63.2578 6.01015V6.68926H62.5137V6.59605C62.5137 6.59605 62.5321 6.59605 62.5695 6.59605C62.6129 6.59605 62.6345 6.59605 62.6345 6.59605C62.7957 6.59605 62.9324 6.54022 63.0437 6.42857C63.1617 6.31086 63.2236 6.1713 63.2299 6.01015H63.2578ZM63.2578 0.855812H63.2299C63.2236 0.694657 63.1617 0.557989 63.0437 0.446339C62.9324 0.328632 62.7957 0.26965 62.6345 0.26965C62.6345 0.26965 62.6129 0.26965 62.5695 0.26965C62.5321 0.26965 62.5137 0.26965 62.5137 0.26965V0.176697H63.2578V0.855812ZM63.8066 6.01015H63.8345C63.8408 6.1713 63.8996 6.31086 64.0112 6.42857C64.1292 6.54022 64.2687 6.59605 64.4299 6.59605C64.4299 6.59605 64.4486 6.59605 64.4857 6.59605C64.5228 6.59605 64.5447 6.59605 64.5508 6.59605V6.68926H63.8066V6.01015ZM63.8066 0.855812V0.176697H64.5508V0.26965C64.5447 0.26965 64.5228 0.26965 64.4857 0.26965C64.4486 0.26965 64.4299 0.26965 64.4299 0.26965C64.2687 0.26965 64.1292 0.328632 64.0112 0.446339C63.8996 0.557989 63.8408 0.694657 63.8345 0.855812H63.8066Z" fill="black"/>
<path d="M71.5119 4.08419V5.61938C71.3692 5.80529 71.1769 5.99146 70.9349 6.17737C70.6932 6.36354 70.3956 6.51864 70.042 6.64266C69.6947 6.76063 69.2855 6.81936 68.8141 6.81936C68.1568 6.8133 67.577 6.67058 67.0746 6.39145C66.5724 6.10627 66.1785 5.71234 65.8933 5.20991C65.6142 4.70143 65.4746 4.10895 65.4746 3.43299C65.4746 2.75677 65.6142 2.16455 65.8933 1.65607C66.1785 1.14732 66.5724 0.753385 67.0746 0.47426C67.577 0.189079 68.1568 0.0463562 68.8141 0.0463562C69.1551 0.0463562 69.4621 0.0742709 69.735 0.130096C70.008 0.185921 70.2529 0.263599 70.4699 0.362872C70.6932 0.455826 70.8946 0.561158 71.0745 0.679128L71.2607 1.99075H71.1769C71.084 1.63105 70.9289 1.33033 70.7119 1.08834C70.501 0.840283 70.2342 0.651216 69.9119 0.520869C69.5893 0.390523 69.2236 0.325481 68.8141 0.325481C68.2932 0.325481 67.8343 0.455829 67.4374 0.716258C67.0406 0.976687 66.7304 1.33955 66.5071 1.80485C66.2841 2.26988 66.1724 2.81259 66.1724 3.43299C66.1724 4.05312 66.2841 4.59583 66.5071 5.06113C66.7304 5.52616 67.0406 5.88903 67.4374 6.14945C67.8343 6.40383 68.2932 6.53418 68.8141 6.54023C69.0869 6.54023 69.3476 6.50942 69.5957 6.44727C69.8498 6.37907 70.0886 6.28612 70.3119 6.16815C70.5349 6.04412 70.7335 5.8985 70.9073 5.73103L70.9165 4.08419C70.9165 3.80507 70.7582 3.6655 70.442 3.6655H70.2932V3.57255H72.1165V3.6655H71.9769C71.6543 3.6655 71.4995 3.80507 71.5119 4.08419Z" fill="black"/>
<path d="M75.2501 0.232495H76.0038L77.7341 5.78682L77.5758 6.80089L75.2501 0.232495ZM79.4175 0.0278931L79.4921 0.781266L77.855 5.76813C77.855 5.76813 77.8394 5.82395 77.8084 5.9356C77.7773 6.04093 77.7465 6.17444 77.7154 6.33559C77.6843 6.49069 77.6656 6.64579 77.6596 6.80089H77.5758L77.4084 5.97273L79.3341 0.0278931H79.4175ZM79.4175 0.0371064L81.3711 5.51692L81.1665 6.80089L79.1013 1.04196L79.4175 0.0371064ZM83.1944 0.232495L81.4549 5.76813C81.4549 5.76813 81.4393 5.82395 81.4083 5.9356C81.3772 6.04725 81.3432 6.18366 81.3061 6.34481C81.275 6.49991 81.2563 6.65185 81.2503 6.80089H81.1665L81.0549 5.87978L82.6736 0.232495H83.1944ZM82.4966 0.846571C82.5464 0.660399 82.5308 0.517679 82.4503 0.418405C82.3697 0.319395 82.2672 0.269626 82.1432 0.269626H82.0595V0.176673H83.892V0.269626C83.892 0.269626 83.8796 0.269626 83.8548 0.269626C83.8301 0.269626 83.8177 0.269626 83.8177 0.269626C83.675 0.269626 83.5199 0.316234 83.3524 0.409188C83.1849 0.496085 83.0672 0.641703 82.999 0.846571H82.4966ZM76.1992 0.846571H75.4642C75.3897 0.641703 75.2688 0.496085 75.1014 0.409188C74.9402 0.316234 74.7883 0.269626 74.6456 0.269626C74.6456 0.269626 74.6332 0.269626 74.6084 0.269626C74.5837 0.269626 74.5713 0.269626 74.5713 0.269626V0.176673H76.6363V0.269626H76.5526C76.4348 0.269626 76.3293 0.319395 76.2363 0.418405C76.1494 0.517679 76.137 0.660399 76.1992 0.846571Z" fill="black"/>
<path d="M85.6824 0.176697V6.68926H85.0778V0.176697H85.6824ZM85.1058 6.01015V6.68926H84.3613V6.59605C84.3613 6.59605 84.38 6.59605 84.4172 6.59605C84.4606 6.59605 84.4825 6.59605 84.4825 6.59605C84.6436 6.59605 84.78 6.54022 84.8917 6.42857C85.0094 6.31086 85.0715 6.1713 85.0778 6.01015H85.1058ZM85.1058 0.855812H85.0778C85.0715 0.694657 85.0094 0.557989 84.8917 0.446339C84.78 0.328632 84.6436 0.26965 84.4825 0.26965C84.4825 0.26965 84.4606 0.26965 84.4172 0.26965C84.38 0.26965 84.3613 0.26965 84.3613 0.26965V0.176697H85.1058V0.855812ZM85.6545 6.01015H85.6824C85.6885 6.1713 85.7475 6.31086 85.8591 6.42857C85.9768 6.54022 86.1164 6.59605 86.2778 6.59605C86.2778 6.59605 86.2962 6.59605 86.3336 6.59605C86.3708 6.59605 86.3924 6.59605 86.3987 6.59605V6.68926H85.6545V6.01015ZM85.6545 0.855812V0.176697H86.3987V0.26965C86.3924 0.26965 86.3708 0.26965 86.3336 0.26965C86.2962 0.26965 86.2778 0.26965 86.2778 0.26965C86.1164 0.26965 85.9768 0.328632 85.8591 0.446339C85.7475 0.557989 85.6885 0.694657 85.6824 0.855812H85.6545Z" fill="black"/>
<path d="M88.8248 0.176697V6.68926H88.2202V0.176697H88.8248ZM91.3364 6.40066V6.68926H88.7968V6.40066H91.3364ZM91.9038 5.18199L91.3643 6.68926H89.8201L90.1551 6.40066C90.4837 6.40066 90.7505 6.35116 90.9551 6.25188C91.1657 6.14655 91.3364 6.00067 91.4667 5.81476C91.5968 5.62859 91.7116 5.41767 91.8109 5.18199H91.9038ZM88.2481 6.01015V6.68926H87.5039V6.59605C87.5039 6.59605 87.5223 6.59605 87.5597 6.59605C87.6032 6.59605 87.6248 6.59605 87.6248 6.59605C87.7859 6.59605 87.9223 6.54022 88.034 6.42857C88.152 6.31086 88.2138 6.1713 88.2202 6.01015H88.2481ZM88.2481 0.855812H88.2202C88.2138 0.694657 88.152 0.557989 88.034 0.446339C87.9223 0.328632 87.7859 0.26965 87.6248 0.26965C87.6248 0.26965 87.6032 0.26965 87.5597 0.26965C87.5223 0.26965 87.5039 0.26965 87.5039 0.26965V0.176697H88.2481V0.855812ZM88.7968 0.855812V0.176697H89.541V0.26965C89.5349 0.26965 89.5131 0.26965 89.476 0.26965C89.4388 0.26965 89.4201 0.26965 89.4201 0.26965C89.259 0.26965 89.1194 0.328632 89.0014 0.446339C88.8898 0.557989 88.8311 0.694657 88.8248 0.855812H88.7968Z" fill="black"/>
<path d="M93.9126 0.176697V6.68926H93.308V0.176697H93.9126ZM96.4242 6.40066V6.68926H93.8847V6.40066H96.4242ZM96.9917 5.18199L96.4522 6.68926H94.908L95.243 6.40066C95.5716 6.40066 95.8381 6.35116 96.0429 6.25188C96.2536 6.14655 96.4242 6.00067 96.5543 5.81476C96.6847 5.62859 96.7995 5.41767 96.8988 5.18199H96.9917ZM93.336 6.01015V6.68926H92.5918V6.59605C92.5918 6.59605 92.6102 6.59605 92.6476 6.59605C92.6908 6.59605 92.7127 6.59605 92.7127 6.59605C92.8738 6.59605 93.0102 6.54022 93.1219 6.42857C93.2398 6.31086 93.3017 6.1713 93.308 6.01015H93.336ZM93.336 0.855812H93.308C93.3017 0.694657 93.2398 0.557989 93.1219 0.446339C93.0102 0.328632 92.8738 0.26965 92.7127 0.26965C92.7127 0.26965 92.6908 0.26965 92.6476 0.26965C92.6102 0.26965 92.5918 0.26965 92.5918 0.26965V0.176697H93.336V0.855812ZM93.8847 0.855812V0.176697H94.6289V0.26965C94.6226 0.26965 94.601 0.26965 94.5638 0.26965C94.5265 0.26965 94.508 0.26965 94.508 0.26965C94.3466 0.26965 94.2073 0.328632 94.0893 0.446339C93.9777 0.557989 93.9187 0.694657 93.9126 0.855812H93.8847Z" fill="black"/>
<path d="M103.293 0.176697C103.957 0.176697 104.537 0.313096 105.033 0.585901C105.535 0.85265 105.926 1.23105 106.205 1.7211C106.49 2.21115 106.633 2.78178 106.633 3.43298C106.633 4.08418 106.49 4.65481 106.205 5.14486C105.926 5.62859 105.535 6.00699 105.033 6.27979C104.537 6.5526 103.957 6.68926 103.293 6.68926H101.302L101.293 6.41014C101.293 6.41014 101.358 6.41014 101.489 6.41014C101.625 6.41014 101.793 6.41014 101.991 6.41014C102.195 6.41014 102.397 6.41014 102.595 6.41014C102.794 6.41014 102.958 6.41014 103.089 6.41014C103.225 6.41014 103.293 6.41014 103.293 6.41014C103.826 6.41014 104.289 6.28611 104.679 6.0378C105.076 5.78974 105.383 5.44242 105.6 4.99582C105.824 4.54948 105.935 4.02836 105.935 3.43298C105.935 2.8376 105.824 2.31648 105.6 1.86988C105.383 1.42328 105.076 1.07595 104.679 0.827899C104.282 0.579846 103.82 0.455821 103.293 0.455821C103.293 0.455821 103.222 0.455821 103.079 0.455821C102.943 0.455821 102.769 0.455821 102.558 0.455821C102.354 0.455821 102.146 0.455821 101.935 0.455821C101.73 0.455821 101.557 0.455821 101.414 0.455821C101.271 0.455821 101.2 0.455821 101.2 0.455821V0.176697H103.293ZM101.461 0.176697V6.68926H100.856V0.176697H101.461ZM100.884 6.01015V6.68926H100.14V6.59605C100.14 6.59605 100.158 6.59605 100.195 6.59605C100.239 6.59605 100.261 6.59605 100.261 6.59605C100.422 6.59605 100.558 6.54022 100.67 6.42857C100.788 6.31086 100.85 6.1713 100.856 6.01015H100.884ZM100.884 0.855812H100.856C100.856 0.694657 100.797 0.557989 100.679 0.446339C100.561 0.328632 100.422 0.26965 100.261 0.26965C100.261 0.26965 100.242 0.26965 100.205 0.26965C100.168 0.26965 100.149 0.26965 100.149 0.26965L100.14 0.176697H100.884V0.855812Z" fill="black"/>
<path d="M111.078 0.0463562C111.741 0.0463562 112.324 0.189079 112.827 0.47426C113.329 0.753385 113.72 1.14732 113.999 1.65607C114.284 2.16455 114.426 2.75677 114.426 3.43299C114.426 4.10895 114.284 4.70143 113.999 5.20991C113.72 5.71839 113.329 6.11548 112.827 6.40067C112.324 6.67979 111.741 6.81936 111.078 6.81936C110.421 6.81936 109.841 6.67979 109.338 6.40067C108.836 6.11548 108.442 5.71839 108.157 5.20991C107.878 4.70143 107.738 4.10895 107.738 3.43299C107.738 2.75677 107.878 2.16455 108.157 1.65607C108.442 1.14732 108.836 0.753385 109.338 0.47426C109.841 0.189079 110.421 0.0463562 111.078 0.0463562ZM111.078 6.54023C111.605 6.54023 112.064 6.41015 112.454 6.14945C112.851 5.88903 113.158 5.52616 113.376 5.06113C113.599 4.59583 113.71 4.05312 113.71 3.43299C113.71 2.81259 113.599 2.26988 113.376 1.80485C113.158 1.33955 112.851 0.976687 112.454 0.716258C112.064 0.455829 111.605 0.325481 111.078 0.325481C110.557 0.325481 110.098 0.455829 109.701 0.716258C109.31 0.976687 109.003 1.33955 108.78 1.80485C108.563 2.26988 108.455 2.81259 108.455 3.43299C108.455 4.05312 108.563 4.59583 108.78 5.06113C109.003 5.52616 109.31 5.88903 109.701 6.14945C110.098 6.41015 110.557 6.54023 111.078 6.54023Z" fill="black"/>
</svg>
