<svg width="193" height="89" viewBox="0 0 193 89" fill="none" xmlns="http://www.w3.org/2000/svg">
<path d="M9.06942 70.3779L11.7253 88.3699H6.97562L6.74421 85.1363H5.08023L4.80468 88.3699H0L2.35826 70.3779H9.06942ZM6.61198 81.9469C6.3769 79.9093 6.14182 77.3941 5.90668 74.4009C5.43652 77.8387 5.14267 80.3538 5.02507 81.9469H6.61198Z" fill="black"/>
<path d="M29.5571 70.3779L27.4964 88.3699H21.6999C21.1709 85.6064 20.7044 82.4655 20.3004 78.9462C20.1167 80.4503 19.6869 83.5911 19.011 88.3699H13.2475L11.1758 70.3779H15.6829L16.1568 76.657L16.6417 82.7133C16.8107 79.5793 17.2368 75.4679 17.9201 70.3779H22.7468C22.8129 70.9039 22.9819 72.8824 23.2537 76.3121L23.7606 83.1466C24.0177 78.798 24.4476 74.5416 25.0499 70.3779H29.5571Z" fill="black"/>
<path d="M30.4805 70.3779H33.9517C36.1925 70.3779 37.7059 70.4818 38.492 70.6891C39.2854 70.8965 39.8879 71.2376 40.2993 71.7114C40.7107 72.1858 40.9678 72.7156 41.0707 73.3008C41.1735 73.8785 41.225 75.0197 41.225 76.7236V83.0246C41.225 84.6395 41.1478 85.7215 40.9935 86.2694C40.8466 86.8104 40.5858 87.2362 40.2111 87.5475C39.8365 87.8513 39.3736 88.0661 38.8226 88.1919C38.2716 88.3108 37.4415 88.3699 36.3321 88.3699H30.4805V70.3779ZM35.1199 73.4564V85.292C35.7884 85.292 36.1999 85.1581 36.3542 84.8917C36.5084 84.6177 36.5856 83.8806 36.5856 82.6803V75.6902C36.5856 74.8753 36.5598 74.3529 36.5084 74.1232C36.457 73.8935 36.3395 73.7266 36.1558 73.6233C35.9721 73.5118 35.6268 73.4564 35.1199 73.4564Z" fill="black"/>
<path d="M53.5565 80.9129C53.5565 82.7208 53.5129 84.0027 53.4245 84.7585C53.3435 85.5068 53.079 86.1916 52.6307 86.8142C52.1899 87.4367 51.5917 87.9142 50.8346 88.2479C50.0782 88.581 49.1967 88.7478 48.19 88.7478C47.235 88.7478 46.3752 88.5922 45.6113 88.2809C44.8543 87.9628 44.2448 87.4884 43.7822 86.8583C43.3191 86.2289 43.0436 85.5435 42.9555 84.8026C42.8673 84.0618 42.8232 82.7656 42.8232 80.9129V77.8349C42.8232 76.027 42.8636 74.7489 42.9445 74.0006C43.0326 73.2454 43.2973 72.5562 43.738 71.9337C44.1863 71.3117 44.7883 70.8336 45.5453 70.5005C46.3017 70.1668 47.1833 70 48.19 70C49.145 70 50.001 70.1594 50.7574 70.4781C51.5219 70.7894 52.1351 71.2594 52.5977 71.8895C53.0609 72.5189 53.3361 73.2043 53.4245 73.9452C53.5129 74.686 53.5565 75.9828 53.5565 77.8349V80.9129ZM48.9171 75.001C48.9171 74.1637 48.8698 73.6302 48.7739 73.4011C48.6862 73.1639 48.4988 73.0449 48.2118 73.0449C47.9696 73.0449 47.7822 73.1414 47.6502 73.3338C47.5251 73.5193 47.4628 74.0753 47.4628 75.001V83.4025C47.4628 84.4472 47.5033 85.0915 47.5836 85.3362C47.672 85.5808 47.8706 85.7029 48.1788 85.7029C48.495 85.7029 48.6967 85.5622 48.7851 85.2808C48.8729 84.9988 48.9171 84.3283 48.9171 83.2693V75.001Z" fill="black"/>
<path d="M55.2979 70.3779H58.5819C60.7714 70.3779 62.2512 70.4632 63.0232 70.6337C63.8014 70.8043 64.4333 71.2414 64.9183 71.9449C65.4108 72.6415 65.6567 73.7565 65.6567 75.2899C65.6567 76.69 65.4842 77.6313 65.1387 78.1126C64.7938 78.5944 64.114 78.8833 63.0998 78.9792C64.0187 79.2089 64.6357 79.5165 64.9513 79.9018C65.2676 80.2872 65.4618 80.6427 65.5353 80.9689C65.6162 81.287 65.6567 82.1723 65.6567 83.6247V88.3699H61.3479V82.3914C61.3479 81.4283 61.2707 80.8319 61.1163 80.6022C60.9694 80.3725 60.5766 80.2573 59.9372 80.2573V88.3699H55.2979V70.3779ZM59.9372 73.4564V77.457C60.4589 77.457 60.8225 77.3867 61.0285 77.246C61.2415 77.0978 61.3479 76.6271 61.3479 75.8346V74.8454C61.3479 74.2751 61.2452 73.9009 61.0391 73.7229C60.8411 73.5455 60.4738 73.4564 59.9372 73.4564Z" fill="black"/>
<path d="M78.1102 77.0013H73.4708V75.3677C73.4708 74.338 73.4266 73.6937 73.3389 73.434C73.2505 73.1751 73.0413 73.0449 72.7107 73.0449C72.4243 73.0449 72.2295 73.1564 72.1267 73.3786C72.0234 73.6009 71.9723 74.1712 71.9723 75.0901V83.725C71.9723 84.5325 72.0234 85.066 72.1267 85.325C72.2295 85.5771 72.4349 85.7029 72.7437 85.7029C73.0817 85.7029 73.3096 85.5584 73.4266 85.2696C73.5518 84.9807 73.614 84.4173 73.614 83.5806V81.4464H72.6777V78.7128H78.1102V88.3699H75.1897L74.7602 87.0806C74.4445 87.6365 74.0442 88.0549 73.5592 88.3369C73.0817 88.6109 72.5158 88.7478 71.8621 88.7478C71.0833 88.7478 70.3524 88.5592 69.6689 88.1813C68.9934 87.7959 68.4791 87.3215 68.1261 86.7587C67.7738 86.1953 67.5534 85.6064 67.465 84.9919C67.3766 84.3694 67.333 83.4392 67.333 82.2022V76.8569C67.333 75.138 67.4245 73.8898 67.6082 73.1116C67.7918 72.334 68.3173 71.623 69.1839 70.978C70.0586 70.3262 71.186 70 72.5675 70C73.9266 70 75.054 70.282 75.9505 70.8448C76.847 71.4076 77.431 72.0781 77.7024 72.8563C77.9745 73.627 78.1102 74.7489 78.1102 76.2237V77.0013Z" fill="black"/>
<path d="M83.9053 70.3779H91.7626V73.9788H88.5446V77.3904H91.4096V80.8133H88.5446V88.3699H83.9053V70.3779Z" fill="black"/>
<path d="M103.498 80.9129C103.498 82.7208 103.454 84.0027 103.366 84.7585C103.285 85.5068 103.02 86.1916 102.572 86.8142C102.132 87.4367 101.533 87.9142 100.776 88.2479C100.019 88.581 99.1378 88.7478 98.1311 88.7478C97.1761 88.7478 96.3164 88.5922 95.5525 88.2809C94.7961 87.9628 94.186 87.4884 93.7234 86.8583C93.2602 86.2289 92.985 85.5435 92.8966 84.8026C92.8082 84.0618 92.7646 82.7656 92.7646 80.9129V77.8349C92.7646 76.027 92.8051 74.7489 92.8854 74.0006C92.9738 73.2454 93.2384 72.5562 93.6792 71.9337C94.1274 71.3117 94.7295 70.8336 95.4865 70.5005C96.2429 70.1668 97.1245 70 98.1311 70C99.0861 70 99.9422 70.1594 100.699 70.4781C101.463 70.7894 102.076 71.2594 102.539 71.8895C103.002 72.5189 103.277 73.2043 103.366 73.9452C103.454 74.686 103.498 75.9828 103.498 77.8349V80.9129ZM98.8583 75.001C98.8583 74.1637 98.811 73.6302 98.7151 73.4011C98.6273 73.1639 98.4399 73.0449 98.1529 73.0449C97.9107 73.0449 97.7234 73.1414 97.5914 73.3338C97.4662 73.5193 97.404 74.0753 97.404 75.001V83.4025C97.404 84.4472 97.4445 85.0915 97.5248 85.3362C97.6132 85.5808 97.8118 85.7029 98.1199 85.7029C98.4362 85.7029 98.6379 85.5622 98.7263 85.2808C98.8147 84.9988 98.8583 84.3283 98.8583 83.2693V75.001Z" fill="black"/>
<path d="M115.786 70.3779V82.402C115.786 83.7654 115.742 84.7248 115.654 85.2808C115.566 85.8286 115.305 86.3958 114.871 86.981C114.438 87.5587 113.865 87.9995 113.153 88.3033C112.447 88.5996 111.613 88.7478 110.651 88.7478C109.585 88.7478 108.645 88.5698 107.83 88.2143C107.014 87.8588 106.405 87.3956 106.001 86.8253C105.597 86.2551 105.357 85.6549 105.284 85.0249C105.211 84.388 105.174 83.0545 105.174 81.0243V70.3779H109.813V83.8694C109.813 84.6545 109.854 85.1581 109.935 85.3804C110.022 85.5952 110.195 85.7029 110.453 85.7029C110.746 85.7029 110.934 85.5846 111.015 85.3474C111.102 85.1027 111.147 84.5324 111.147 83.6359V70.3779H115.786Z" fill="black"/>
<path d="M127.943 70.3779V88.3699H123.877L121.463 80.1907V88.3699H117.584V70.3779H121.463L124.064 78.4793V70.3779H127.943Z" fill="black"/>
<path d="M129.813 70.3779H133.285C135.526 70.3779 137.039 70.4818 137.825 70.6891C138.619 70.8965 139.221 71.2376 139.633 71.7114C140.044 72.1858 140.301 72.7156 140.404 73.3008C140.507 73.8785 140.558 75.0197 140.558 76.7236V83.0246C140.558 84.6395 140.481 85.7215 140.327 86.2694C140.18 86.8104 139.919 87.2362 139.545 87.5475C139.17 87.8513 138.707 88.0661 138.156 88.1919C137.605 88.3108 136.775 88.3699 135.666 88.3699H129.813V70.3779ZM134.453 73.4564V85.292C135.121 85.292 135.533 85.1581 135.687 84.8917C135.842 84.6177 135.919 83.8806 135.919 82.6803V75.6902C135.919 74.8753 135.893 74.3529 135.842 74.1232C135.79 73.8935 135.673 73.7266 135.489 73.6233C135.306 73.5118 134.96 73.4564 134.453 73.4564Z" fill="black"/>
<path d="M150.302 70.3779L152.958 88.3699H148.208L147.977 85.1363H146.313L146.037 88.3699H141.232L143.591 70.3779H150.302ZM147.844 81.9469C147.609 79.9093 147.374 77.3941 147.139 74.4009C146.669 77.8387 146.375 80.3538 146.257 81.9469H147.844Z" fill="black"/>
<path d="M161.841 70.3779V73.9788H159.085V88.3699H154.446V73.9788H151.702V70.3779H161.841Z" fill="black"/>
<path d="M167.537 70.3779V88.3699H162.897V70.3779H167.537Z" fill="black"/>
<path d="M180.001 80.9129C180.001 82.7208 179.957 84.0027 179.869 84.7585C179.788 85.5068 179.524 86.1916 179.075 86.8142C178.635 87.4367 178.036 87.9142 177.279 88.2479C176.522 88.581 175.641 88.7478 174.635 88.7478C173.679 88.7478 172.82 88.5922 172.056 88.2809C171.299 87.9628 170.689 87.4884 170.226 86.8583C169.764 86.2289 169.488 85.5435 169.4 84.8026C169.312 84.0618 169.268 82.7656 169.268 80.9129V77.8349C169.268 76.027 169.308 74.7489 169.389 74.0006C169.477 73.2454 169.741 72.5562 170.182 71.9337C170.63 71.3117 171.233 70.8336 171.989 70.5005C172.746 70.1668 173.628 70 174.635 70C175.59 70 176.445 70.1594 177.202 70.4781C177.966 70.7894 178.58 71.2594 179.042 71.8895C179.505 72.5189 179.781 73.2043 179.869 73.9452C179.957 74.686 180.001 75.9828 180.001 77.8349V80.9129ZM175.362 75.001C175.362 74.1637 175.314 73.6302 175.219 73.4011C175.13 73.1639 174.943 73.0449 174.656 73.0449C174.414 73.0449 174.227 73.1414 174.094 73.3338C173.97 73.5193 173.907 74.0753 173.907 75.001V83.4025C173.907 84.4472 173.947 85.0915 174.028 85.3362C174.117 85.5808 174.315 85.7029 174.623 85.7029C174.939 85.7029 175.141 85.5622 175.229 85.2808C175.318 84.9988 175.362 84.3283 175.362 83.2693V75.001Z" fill="black"/>
<path d="M192.1 70.3779V88.3699H188.033L185.62 80.1907V88.3699H181.741V70.3779H185.62L188.221 78.4793V70.3779H192.1Z" fill="black"/>
<path d="M34.6858 55.068L38.7235 64.7274H37.5641L34.413 56.3643L34.6858 55.068ZM31.7531 63.8134C31.6894 63.9953 31.6803 64.1497 31.7258 64.2771C31.7712 64.4046 31.844 64.5046 31.944 64.5772C32.0531 64.6409 32.1623 64.6726 32.2714 64.6726H32.3942V64.8092H29.6523V64.6726C29.6523 64.6726 29.6751 64.6726 29.7205 64.6726C29.7569 64.6726 29.7751 64.6726 29.7751 64.6726C29.9843 64.6726 30.198 64.6088 30.4162 64.4818C30.6436 64.3451 30.83 64.1223 30.9755 63.8134H31.7531ZM34.6858 55.068L34.8086 56.0229L31.3848 64.7683H30.5663L34.0583 56.4732C34.0583 56.4732 34.0811 56.4187 34.1266 56.3094C34.1811 56.1913 34.2402 56.0503 34.3039 55.8866C34.3766 55.7229 34.4358 55.5638 34.4812 55.4093C34.5358 55.2545 34.5631 55.141 34.5631 55.068H34.6858ZM36.6092 61.0845V61.4938H32.3396V61.0845H36.6092ZM37.2231 63.8134H38.3416C38.478 64.1223 38.6599 64.3451 38.8872 64.4818C39.1146 64.6088 39.3328 64.6726 39.542 64.6726C39.542 64.6726 39.5602 64.6726 39.5966 64.6726C39.6329 64.6726 39.6511 64.6726 39.6511 64.6726V64.8092H36.5819V64.6726H36.7047C36.8775 64.6726 37.0321 64.6 37.1685 64.4544C37.3049 64.2999 37.3231 64.086 37.2231 63.8134Z" fill="black"/>
<path d="M41.2162 55.0545L49.1416 63.513L49.2644 65L41.339 56.555L41.2162 55.0545ZM41.2435 63.8404V64.8092H40.1113V64.6725C40.1113 64.6725 40.1523 64.6725 40.2341 64.6725C40.3159 64.6725 40.3614 64.6725 40.3705 64.6725C40.5979 64.6725 40.7934 64.5907 40.9571 64.427C41.1207 64.2632 41.2026 64.0678 41.2026 63.8404H41.2435ZM41.8301 63.8404C41.8301 64.0678 41.9119 64.2632 42.0756 64.427C42.2393 64.5907 42.4348 64.6725 42.6622 64.6725C42.6713 64.6725 42.7168 64.6725 42.7986 64.6725C42.8804 64.6725 42.9213 64.6725 42.9213 64.6725V64.8092H41.7892V63.8404H41.8301ZM41.2162 55.0545L41.8164 55.8183L41.8301 64.8092H41.2026V56.7597C41.2026 56.2959 41.1799 55.8959 41.1344 55.5592C41.098 55.2228 41.0798 55.0545 41.0798 55.0545H41.2162ZM49.2644 55.2591V63.2539C49.2644 63.545 49.2735 63.8269 49.2917 64.0995C49.3099 64.3636 49.328 64.5818 49.3462 64.7544C49.3735 64.9181 49.3871 65 49.3871 65H49.2644L48.6505 64.2771V55.2591H49.2644ZM50.3556 55.2591V55.3954C50.3556 55.3954 50.3147 55.3954 50.2329 55.3954C50.151 55.3954 50.1101 55.3954 50.1101 55.3954C49.8827 55.3954 49.6872 55.4773 49.5235 55.641C49.3599 55.7959 49.2734 55.9913 49.2644 56.2276H49.2234V55.2591H50.3556ZM47.5456 55.2591H48.6778V56.2276H48.6505C48.6414 55.9913 48.5551 55.7959 48.3913 55.641C48.2368 55.4773 48.0412 55.3954 47.8048 55.3954C47.8048 55.3954 47.7638 55.3954 47.682 55.3954C47.6002 55.3954 47.5547 55.3954 47.5456 55.3954V55.2591Z" fill="black"/>
<path d="M53.0156 55.2727L55.6892 60.2524L55.1026 60.73L51.8424 55.2727H53.0156ZM55.8801 60.4161V64.8092H54.9935V60.4161H55.8801ZM58.3082 55.2727H59.1403L55.7846 60.7026L55.2936 60.5524L58.3082 55.2727ZM57.749 56.2415C57.8308 56.1141 57.8535 55.9866 57.8172 55.8592C57.7808 55.7229 57.7126 55.6136 57.6125 55.5321C57.5125 55.441 57.3988 55.3954 57.2715 55.3954C57.2715 55.3954 57.2442 55.3954 57.1897 55.3954C57.1351 55.3954 57.1078 55.3954 57.1078 55.3954V55.2591H60.1361V55.3954H59.9451C59.6632 55.3954 59.3995 55.4773 59.1539 55.641C58.9084 55.8048 58.7129 55.9913 58.5674 56.2006L57.749 56.2415ZM53.5339 56.2415L52.3881 56.2006C52.2608 55.9913 52.0743 55.8048 51.8288 55.641C51.5833 55.4773 51.315 55.3954 51.024 55.3954H50.833V55.2591H54.1887V55.3954C54.1887 55.3954 54.1569 55.3954 54.0932 55.3954C54.0386 55.3954 54.0114 55.3954 54.0114 55.3954C53.8113 55.3954 53.6567 55.4912 53.5476 55.682C53.4475 55.8638 53.443 56.0503 53.5339 56.2415ZM55.0208 63.8134V64.8092H53.9431V64.6726C53.9431 64.6726 53.9704 64.6726 54.025 64.6726C54.0796 64.6726 54.1114 64.6726 54.1205 64.6726C54.3569 64.6726 54.557 64.5907 54.7207 64.427C54.8935 64.2544 54.9844 64.0497 54.9935 63.8134H55.0208ZM55.8392 63.8134H55.8801C55.8801 64.0497 55.9665 64.2544 56.1393 64.427C56.3121 64.5907 56.5167 64.6726 56.7532 64.6726C56.7532 64.6726 56.7804 64.6726 56.835 64.6726C56.8896 64.6726 56.9169 64.6726 56.9169 64.6726V64.8092H55.8392V63.8134Z" fill="black"/>
<path d="M64.6531 55.3V64.8092H63.7665V55.3H64.6531ZM68.1589 55.2456V55.6545H60.2607V55.2456H68.1589ZM68.1589 55.6136V56.7187L68.0222 56.7052V56.4731C68.0222 56.2461 67.9408 56.0549 67.777 55.9001C67.6222 55.7456 67.4357 55.6638 67.2175 55.6545V55.6136H68.1589ZM68.1589 55V55.3954L66.4946 55.2456C66.6947 55.2456 66.904 55.2317 67.1221 55.2047C67.3496 55.1772 67.5585 55.1452 67.7496 55.1089C67.9408 55.0726 68.0771 55.0363 68.1589 55ZM63.8074 63.8133V64.8092H62.7161V64.6725C62.7161 64.6725 62.7434 64.6725 62.798 64.6725C62.8616 64.6725 62.8934 64.6725 62.8934 64.6725C63.1299 64.6725 63.33 64.5907 63.4937 64.4269C63.6664 64.2543 63.7574 64.0497 63.7665 63.8133H63.8074ZM64.6122 63.8133H64.6531C64.6622 64.0497 64.7486 64.2543 64.9123 64.4269C65.0851 64.5907 65.2897 64.6725 65.5261 64.6725C65.5261 64.6725 65.5534 64.6725 65.6081 64.6725C65.6718 64.6725 65.7034 64.6725 65.7034 64.6725V64.8092H64.6122V63.8133ZM61.202 55.6136V55.6545C60.9746 55.6638 60.7837 55.7456 60.629 55.9001C60.4745 56.0549 60.3972 56.2461 60.3972 56.4731V56.7052L60.2607 56.7187V55.6136H61.202ZM60.2607 55C60.3517 55.0363 60.4881 55.0726 60.67 55.1089C60.861 55.1452 61.0701 55.1772 61.2975 55.2047C61.5248 55.2317 61.734 55.2456 61.9249 55.2456L60.2607 55.3954V55Z" fill="black"/>
<path d="M77.6412 55.2591V64.8092H76.7546V55.2591H77.6412ZM71.1756 55.2591V64.8092H70.2886V55.2591H71.1756ZM76.8774 59.884V60.2933H71.0389V59.884H76.8774ZM70.3295 63.8134V64.8092H69.2383V64.6726C69.2383 64.6726 69.2657 64.6726 69.3201 64.6726C69.3839 64.6726 69.4159 64.6726 69.4159 64.6726C69.6522 64.6726 69.8522 64.5907 70.016 64.427C70.1886 64.2544 70.2797 64.0497 70.2886 63.8134H70.3295ZM70.3295 56.255H70.2886C70.2797 56.0187 70.1886 55.8183 70.016 55.6545C69.8522 55.4819 69.6522 55.3954 69.4159 55.3954C69.4159 55.3954 69.3839 55.3954 69.3201 55.3954C69.2657 55.3954 69.2383 55.3954 69.2383 55.3954V55.2591H70.3295V56.255ZM71.1346 63.8134H71.1756C71.1844 64.0497 71.2709 64.2544 71.4347 64.427C71.6073 64.5907 71.8119 64.6726 72.0483 64.6726C72.0483 64.6726 72.0757 64.6726 72.1301 64.6726C72.1849 64.6726 72.2166 64.6726 72.2259 64.6726V64.8092H71.1346V63.8134ZM71.1346 56.255V55.2591H72.2259V55.3954C72.2166 55.3954 72.1849 55.3954 72.1301 55.3954C72.0757 55.3954 72.0483 55.3954 72.0483 55.3954C71.8119 55.3954 71.6073 55.4819 71.4347 55.6545C71.2709 55.8183 71.1844 56.0187 71.1756 56.255H71.1346ZM76.7955 63.8134V64.8092H75.7043V64.6726C75.7131 64.6726 75.7452 64.6726 75.7996 64.6726C75.8541 64.6726 75.8815 64.6726 75.8815 64.6726C76.1178 64.6726 76.3225 64.5907 76.4955 64.427C76.6681 64.2544 76.7546 64.0497 76.7546 63.8134H76.7955ZM76.7955 56.255H76.7546C76.7546 56.0187 76.6681 55.8183 76.4955 55.6545C76.3225 55.4819 76.1178 55.3954 75.8815 55.3954C75.8815 55.3954 75.8541 55.3954 75.7996 55.3954C75.7452 55.3954 75.7131 55.3954 75.7043 55.3954V55.2591H76.7955V56.255ZM77.6002 63.8134H77.6412C77.6504 64.0497 77.7365 64.2544 77.9003 64.427C78.0733 64.5907 78.2779 64.6726 78.5142 64.6726C78.5142 64.6726 78.5416 64.6726 78.5961 64.6726C78.6598 64.6726 78.6915 64.6726 78.6915 64.6726V64.8092H77.6002V63.8134ZM77.6002 56.255V55.2591H78.6915V55.3954C78.6915 55.3954 78.6598 55.3954 78.5961 55.3954C78.5416 55.3954 78.5142 55.3954 78.5142 55.3954C78.2779 55.3954 78.0733 55.4819 77.9003 55.6545C77.7365 55.8183 77.6504 56.0187 77.6412 56.255H77.6002Z" fill="black"/>
<path d="M81.235 55.0545L89.1602 63.513L89.283 65L81.3578 56.555L81.235 55.0545ZM81.2621 63.8404V64.8092H80.1299V64.6725C80.1299 64.6725 80.1708 64.6725 80.2527 64.6725C80.3345 64.6725 80.3801 64.6725 80.389 64.6725C80.6164 64.6725 80.8118 64.5907 80.9755 64.427C81.1393 64.2632 81.2211 64.0678 81.2211 63.8404H81.2621ZM81.8486 63.8404C81.8486 64.0678 81.9305 64.2632 82.0942 64.427C82.2579 64.5907 82.4533 64.6725 82.6808 64.6725C82.69 64.6725 82.7352 64.6725 82.8171 64.6725C82.8989 64.6725 82.9398 64.6725 82.9398 64.6725V64.8092H81.8077V63.8404H81.8486ZM81.235 55.0545L81.8351 55.8183L81.8486 64.8092H81.2211V56.7597C81.2211 56.2959 81.1983 55.8959 81.1532 55.5592C81.1165 55.2228 81.0983 55.0545 81.0983 55.0545H81.235ZM89.283 55.2591V63.2539C89.283 63.545 89.2919 63.8269 89.3105 64.0995C89.3286 64.3636 89.3468 64.5818 89.3649 64.7544C89.3919 64.9181 89.4058 65 89.4058 65H89.283L88.6691 64.2771V55.2591H89.283ZM90.3743 55.2591V55.3954C90.3743 55.3954 90.3334 55.3954 90.2515 55.3954C90.1696 55.3954 90.1287 55.3954 90.1287 55.3954C89.9013 55.3954 89.7059 55.4773 89.5421 55.641C89.3784 55.7959 89.2919 55.9913 89.283 56.2276H89.2421V55.2591H90.3743ZM87.5643 55.2591H88.6965V56.2276H88.6691C88.6602 55.9913 88.5737 55.7959 88.41 55.641C88.2555 55.4773 88.0597 55.3954 87.8234 55.3954C87.8234 55.3954 87.7825 55.3954 87.7006 55.3954C87.6188 55.3954 87.5732 55.3954 87.5643 55.3954V55.2591Z" fill="black"/>
<path d="M93.6078 55.2591V64.8092H92.7212V55.2591H93.6078ZM92.7621 63.8134V64.8092H91.6709V64.6726C91.6709 64.6726 91.6979 64.6726 91.7528 64.6726C91.8165 64.6726 91.8481 64.6726 91.8481 64.6726C92.0845 64.6726 92.2849 64.5907 92.4482 64.427C92.6212 64.2544 92.7119 64.0497 92.7212 63.8134H92.7621ZM92.7621 56.255H92.7212C92.7119 56.0187 92.6212 55.8183 92.4482 55.6545C92.2849 55.4819 92.0845 55.3954 91.8481 55.3954C91.8481 55.3954 91.8165 55.3954 91.7528 55.3954C91.6979 55.3954 91.6709 55.3954 91.6709 55.3954V55.2591H92.7621V56.255ZM93.5669 63.8134H93.6078C93.6171 64.0497 93.7032 64.2544 93.8669 64.427C94.0399 64.5907 94.2445 64.6726 94.4809 64.6726C94.4809 64.6726 94.5083 64.6726 94.5627 64.6726C94.6172 64.6726 94.6492 64.6726 94.6581 64.6726V64.8092H93.5669V63.8134ZM93.5669 56.255V55.2591H94.6581V55.3954C94.6492 55.3954 94.6172 55.3954 94.5627 55.3954C94.5083 55.3954 94.4809 55.3954 94.4809 55.3954C94.2445 55.3954 94.0399 55.4819 93.8669 55.6545C93.7032 55.8183 93.6171 56.0187 93.6078 56.255H93.5669Z" fill="black"/>
<path d="M104.866 60.9891V63.2403C104.657 63.513 104.375 63.786 104.02 64.0586C103.665 64.3316 103.229 64.559 102.71 64.7409C102.201 64.9139 101.601 65 100.91 65C99.946 64.9911 99.0957 64.7818 98.3589 64.3725C97.6225 63.9543 97.0449 63.3767 96.6267 62.6399C96.2174 61.8942 96.0127 61.0254 96.0127 60.0342C96.0127 59.0426 96.2174 58.1741 96.6267 57.4285C97.0449 56.6825 97.6225 56.1048 98.3589 55.6955C99.0957 55.2773 99.946 55.068 100.91 55.068C101.41 55.068 101.86 55.1089 102.26 55.1908C102.661 55.2727 103.02 55.3866 103.338 55.5321C103.665 55.6684 103.961 55.8229 104.224 55.9959L104.497 57.9193H104.375C104.238 57.3918 104.011 56.9508 103.693 56.596C103.383 56.2322 102.992 55.955 102.52 55.7638C102.047 55.5727 101.51 55.4773 100.91 55.4773C100.146 55.4773 99.4729 55.6684 98.891 56.0503C98.3091 56.4322 97.8542 56.9643 97.5268 57.6467C97.1997 58.3286 97.036 59.1244 97.036 60.0342C97.036 60.9436 97.1997 61.7394 97.5268 62.4217C97.8542 63.1037 98.3091 63.6358 98.891 64.0177C99.4729 64.3907 100.146 64.5818 100.91 64.5907C101.31 64.5907 101.692 64.5455 102.056 64.4544C102.428 64.3544 102.779 64.2181 103.106 64.0451C103.433 63.8632 103.724 63.6497 103.979 63.4041L103.993 60.9891C103.993 60.5798 103.761 60.3752 103.297 60.3752H103.079V60.2388H105.752V60.3752H105.548C105.075 60.3752 104.848 60.5798 104.866 60.9891Z" fill="black"/>
<path d="M110.348 55.341H111.453L113.991 63.4859L113.758 64.9729L110.348 55.341ZM116.459 55.0409L116.568 56.1457L114.168 63.4585C114.168 63.4585 114.145 63.5404 114.099 63.7041C114.054 63.8585 114.009 64.0543 113.963 64.2906C113.918 64.5181 113.89 64.7455 113.881 64.9729H113.758L113.513 63.7585L116.337 55.0409H116.459ZM116.459 55.0544L119.324 63.0901L119.024 64.9729L115.995 56.528L116.459 55.0544ZM121.998 55.341L119.447 63.4585C119.447 63.4585 119.424 63.5404 119.378 63.7041C119.333 63.8678 119.283 64.0678 119.229 64.3041C119.183 64.5316 119.156 64.7544 119.147 64.9729H119.024L118.86 63.6222L121.234 55.341H121.998ZM120.974 56.2415C121.047 55.9685 121.025 55.7592 120.906 55.6136C120.788 55.4684 120.638 55.3954 120.456 55.3954H120.333V55.2591H123.02V55.3954C123.02 55.3954 123.002 55.3954 122.966 55.3954C122.93 55.3954 122.912 55.3954 122.912 55.3954C122.702 55.3954 122.475 55.4638 122.229 55.6001C121.984 55.7275 121.811 55.941 121.711 56.2415H120.974ZM111.74 56.2415H110.662C110.553 55.941 110.375 55.7275 110.13 55.6001C109.894 55.4638 109.671 55.3954 109.461 55.3954C109.461 55.3954 109.443 55.3954 109.407 55.3954C109.371 55.3954 109.353 55.3954 109.353 55.3954V55.2591H112.381V55.3954H112.258C112.085 55.3954 111.93 55.4684 111.794 55.6136C111.667 55.7592 111.649 55.9685 111.74 56.2415Z" fill="black"/>
<path d="M125.645 55.2591V64.8092H124.759V55.2591H125.645ZM124.8 63.8134V64.8092H123.708V64.6726C123.708 64.6726 123.735 64.6726 123.79 64.6726C123.854 64.6726 123.886 64.6726 123.886 64.6726C124.122 64.6726 124.322 64.5907 124.486 64.427C124.658 64.2544 124.749 64.0497 124.759 63.8134H124.8ZM124.8 56.255H124.759C124.749 56.0187 124.658 55.8183 124.486 55.6545C124.322 55.4819 124.122 55.3954 123.886 55.3954C123.886 55.3954 123.854 55.3954 123.79 55.3954C123.735 55.3954 123.708 55.3954 123.708 55.3954V55.2591H124.8V56.255ZM125.604 63.8134H125.645C125.654 64.0497 125.741 64.2544 125.904 64.427C126.077 64.5907 126.282 64.6726 126.518 64.6726C126.518 64.6726 126.545 64.6726 126.6 64.6726C126.655 64.6726 126.686 64.6726 126.696 64.6726V64.8092H125.604V63.8134ZM125.604 56.255V55.2591H126.696V55.3954C126.686 55.3954 126.655 55.3954 126.6 55.3954C126.545 55.3954 126.518 55.3954 126.518 55.3954C126.282 55.3954 126.077 55.4819 125.904 55.6545C125.741 55.8183 125.654 56.0187 125.645 56.255H125.604Z" fill="black"/>
<path d="M130.254 55.2591V64.8092H129.368V55.2591H130.254ZM133.937 64.386V64.8092H130.213V64.386H133.937ZM134.769 62.599L133.978 64.8092H131.714L132.205 64.386C132.687 64.386 133.078 64.3134 133.378 64.1679C133.687 64.0134 133.937 63.7995 134.128 63.5269C134.319 63.2539 134.488 62.9446 134.633 62.599H134.769ZM129.409 63.8134V64.8092H128.317V64.6726C128.317 64.6726 128.344 64.6726 128.399 64.6726C128.463 64.6726 128.495 64.6726 128.495 64.6726C128.731 64.6726 128.931 64.5907 129.095 64.427C129.268 64.2544 129.358 64.0497 129.368 63.8134H129.409ZM129.409 56.255H129.368C129.358 56.0187 129.268 55.8183 129.095 55.6545C128.931 55.4819 128.731 55.3954 128.495 55.3954C128.495 55.3954 128.463 55.3954 128.399 55.3954C128.344 55.3954 128.317 55.3954 128.317 55.3954V55.2591H129.409V56.255ZM130.213 56.255V55.2591H131.305V55.3954C131.296 55.3954 131.264 55.3954 131.209 55.3954C131.155 55.3954 131.127 55.3954 131.127 55.3954C130.891 55.3954 130.686 55.4819 130.513 55.6545C130.35 55.8183 130.264 56.0187 130.254 56.255H130.213Z" fill="black"/>
<path d="M137.714 55.2591V64.8092H136.828V55.2591H137.714ZM141.397 64.386V64.8092H137.673V64.386H141.397ZM142.229 62.599L141.438 64.8092H139.174L139.665 64.386C140.147 64.386 140.538 64.3134 140.838 64.1679C141.147 64.0134 141.397 63.7995 141.588 63.5269C141.779 63.2539 141.948 62.9446 142.093 62.599H142.229ZM136.869 63.8134V64.8092H135.777V64.6726C135.777 64.6726 135.804 64.6726 135.859 64.6726C135.923 64.6726 135.955 64.6726 135.955 64.6726C136.191 64.6726 136.391 64.5907 136.555 64.427C136.728 64.2544 136.818 64.0497 136.828 63.8134H136.869ZM136.869 56.255H136.828C136.818 56.0187 136.728 55.8183 136.555 55.6545C136.391 55.4819 136.191 55.3954 135.955 55.3954C135.955 55.3954 135.923 55.3954 135.859 55.3954C135.804 55.3954 135.777 55.3954 135.777 55.3954V55.2591H136.869V56.255ZM137.673 56.255V55.2591H138.765V55.3954C138.755 55.3954 138.724 55.3954 138.669 55.3954C138.614 55.3954 138.587 55.3954 138.587 55.3954C138.351 55.3954 138.146 55.4819 137.973 55.6545C137.81 55.8183 137.723 56.0187 137.714 56.255H137.673Z" fill="black"/>
<path d="M151.471 55.2591C152.444 55.2591 153.294 55.4592 154.022 55.8592C154.758 56.2504 155.331 56.8053 155.741 57.5239C156.159 58.2425 156.368 59.0793 156.368 60.0342C156.368 60.9891 156.159 61.8259 155.741 62.5445C155.331 63.2539 154.758 63.8087 154.022 64.2088C153.294 64.6088 152.444 64.8092 151.471 64.8092H148.552L148.538 64.3999C148.538 64.3999 148.634 64.3999 148.825 64.3999C149.025 64.3999 149.271 64.3999 149.561 64.3999C149.861 64.3999 150.157 64.3999 150.448 64.3999C150.739 64.3999 150.98 64.3999 151.171 64.3999C151.371 64.3999 151.471 64.3999 151.471 64.3999C152.253 64.3999 152.931 64.2181 153.503 63.8539C154.086 63.4902 154.536 62.9809 154.854 62.326C155.182 61.6714 155.345 60.9073 155.345 60.0342C155.345 59.1611 155.182 58.3969 154.854 57.742C154.536 57.0871 154.086 56.5778 153.503 56.2141C152.921 55.8503 152.244 55.6685 151.471 55.6685C151.471 55.6685 151.366 55.6685 151.157 55.6685C150.957 55.6685 150.703 55.6685 150.393 55.6685C150.093 55.6685 149.789 55.6685 149.479 55.6685C149.179 55.6685 148.925 55.6685 148.716 55.6685C148.506 55.6685 148.402 55.6685 148.402 55.6685V55.2591H151.471ZM148.784 55.2591V64.8092H147.897V55.2591H148.784ZM147.938 63.8134V64.8092H146.847V64.6726C146.847 64.6726 146.874 64.6726 146.929 64.6726C146.992 64.6726 147.024 64.6726 147.024 64.6726C147.261 64.6726 147.461 64.5907 147.624 64.427C147.797 64.2544 147.888 64.0497 147.897 63.8134H147.938ZM147.938 56.255H147.897C147.897 56.0187 147.811 55.8183 147.638 55.6545C147.465 55.4819 147.261 55.3954 147.024 55.3954C147.024 55.3954 146.997 55.3954 146.942 55.3954C146.888 55.3954 146.861 55.3954 146.861 55.3954L146.847 55.2591H147.938V56.255Z" fill="black"/>
<path d="M162.885 55.068C163.858 55.068 164.713 55.2773 165.45 55.6955C166.187 56.1048 166.76 56.6825 167.168 57.4285C167.587 58.1741 167.796 59.0426 167.796 60.0342C167.796 61.0254 167.587 61.8942 167.168 62.6399C166.76 63.3855 166.187 63.9678 165.45 64.386C164.713 64.7953 163.858 65 162.885 65C161.922 65 161.071 64.7953 160.334 64.386C159.598 63.9678 159.02 63.3855 158.602 62.6399C158.193 61.8942 157.988 61.0254 157.988 60.0342C157.988 59.0426 158.193 58.1741 158.602 57.4285C159.02 56.6825 159.598 56.1048 160.334 55.6955C161.071 55.2773 161.922 55.068 162.885 55.068ZM162.885 64.5907C163.658 64.5907 164.331 64.3999 164.904 64.0177C165.486 63.6358 165.936 63.1037 166.255 62.4217C166.582 61.7394 166.746 60.9436 166.746 60.0342C166.746 59.1244 166.582 58.3286 166.255 57.6467C165.936 56.9643 165.486 56.4322 164.904 56.0503C164.331 55.6684 163.658 55.4773 162.885 55.4773C162.122 55.4773 161.449 55.6684 160.867 56.0503C160.294 56.4322 159.843 56.9643 159.516 57.6467C159.198 58.3286 159.039 59.1244 159.039 60.0342C159.039 60.9436 159.198 61.7394 159.516 62.4217C159.843 63.1037 160.294 63.6358 160.867 64.0177C161.449 64.3999 162.122 64.5907 162.885 64.5907Z" fill="black"/>
<path d="M100.493 19.3884C99.8323 15.6286 100.77 7.83545 109.804 6.74115C110.652 10.3312 109.918 17.8962 100.493 19.3884Z" fill="#F7C11F"/>
<path d="M107.641 12.2307C107.577 8.41385 109.721 0.863187 118.815 1.19509C119.092 4.87363 117.183 12.2307 107.641 12.2307Z" fill="#5D92C3"/>
<path d="M91.9609 20.2223C87.5445 18.4677 79.8901 12.4007 84.6032 2.16911C88.9616 3.61517 96.5059 9.31977 91.9609 20.2223Z" fill="#F7C11F"/>
<path d="M94.0744 20.8325C91.58 16.3456 89.379 6.0105 100.529 0.566086C103.191 4.75286 105.553 14.7067 94.0744 20.8325Z" fill="#EA2E1F"/>
<path d="M73.6372 18.1302C69.7816 16.9709 62.7968 12.652 65.7011 4.65045C69.4777 5.57656 76.3347 9.62328 73.6372 18.1302Z" fill="#352C4E"/>
<path d="M63.8473 13.4252C61.125 13.0453 55.9739 10.7885 57.1477 4.8002C59.7935 5.0243 64.8312 7.10331 63.8473 13.4252Z" fill="#3A8F2B"/>
<path d="M57.6859 14.9124C54.9536 15.2123 49.4061 14.2889 49.0742 8.19572C51.694 7.76354 57.0879 8.54246 57.6859 14.9124Z" fill="#3A8F2B"/>
<path d="M46.5444 8.69598C45.4829 8.81964 43.3185 8.4135 43.1533 5.79963C44.1703 5.61905 46.2741 5.96294 46.5444 8.69598Z" fill="#5D92C3"/>
<path d="M75.5316 9.1294C73.117 8.40782 68.7872 5.57171 70.7838 0C73.1531 0.562526 77.4074 3.21366 75.5316 9.1294Z" fill="#CB256C"/>
<path d="M91.8853 34.2607C85.8945 32.2871 75.2472 24.9224 80.5827 11.2512C86.4701 12.8267 96.9403 19.7269 91.8853 34.2607Z" fill="#CB256C"/>
<path d="M80.4632 19.7098C77.4296 19.0901 71.8122 16.1281 73.6131 9.23697C76.5732 9.67034 82.0771 12.4181 80.4632 19.7098Z" fill="#3A8F2B"/>
<path d="M84.1235 16.6285C80.7466 15.2941 74.9828 10.4553 78.9429 1.77643C82.2841 2.85512 87.9731 7.39461 84.1235 16.6285Z" fill="#5D92C3"/>
<path d="M91.1529 34.5018C88.7932 28.6524 87.5453 15.7664 101.431 11.017C104.028 16.5304 105.516 28.9814 91.1529 34.5018Z" fill="#5D92C3"/>
<path d="M121.682 15.1932C121.957 13.2913 123.938 9.76837 129.663 10.892C129.533 12.7477 127.717 16.1994 121.682 15.1932Z" fill="#EA2E1F"/>
<path d="M65.5239 25.1608C61.6505 25.6061 53.7732 24.3183 53.252 15.6044C56.9649 14.9705 64.6231 16.0525 65.5239 25.1608Z" fill="#F7C11F"/>
<path d="M70.9988 26.9232C69.5206 27.5021 66.2802 27.8005 65.1455 24.3636C66.5406 23.7258 69.6727 23.3676 70.9988 26.9232Z" fill="#5D92C3"/>
<path d="M117.24 12.5069C117.37 9.32152 119.522 3.12955 127.089 3.84468C127.142 6.92497 125.196 12.9669 117.24 12.5069Z" fill="#F7C11F"/>
<path d="M106.786 18.6204C106.927 16.5687 109.438 12.7332 118.347 13.8046C118.422 15.803 116.154 19.5579 106.786 18.6204Z" fill="#EA2E1F"/>
<path d="M54.1775 19.747C52.7086 19.917 49.7175 19.3905 49.5039 15.9244C50.9115 15.6792 53.8191 16.1234 54.1775 19.747Z" fill="#EA2E1F"/>
<path d="M73.3995 26.2574C70.6546 26.1164 65.3261 24.3176 65.9729 18.2498C68.6283 18.2422 73.8282 19.8738 73.3995 26.2574Z" fill="#EA2E1F"/>
<path d="M110.104 30.7212C110.059 27.5335 111.866 21.2324 119.46 21.5294C119.683 24.6021 118.073 30.7421 110.104 30.7212Z" fill="#CB256C"/>
<path d="M107.062 28.3827C107.193 25.1974 109.345 19.0054 116.91 19.7205C116.964 22.8008 115.018 28.8428 107.062 28.3827Z" fill="#5D92C3"/>
<path d="M122.938 21.8704C123.507 19.5519 126.01 15.3282 131.463 16.9812C131.044 19.2499 128.715 23.3942 122.938 21.8704Z" fill="#F7C11F"/>
<path d="M91.6048 48.5835C91.4935 49.7697 91.2188 49.9736 91.095 49.927L90.539 47.1937C88.6488 39.7434 83.8211 37.1087 81.6438 36.7227C80.9395 36.0184 72.3932 35.41 68.2078 35.1937C61.9811 34.3781 57.8299 32.1358 56.5326 31.1166C52.3629 28.5218 50.7413 25.8347 50.417 25.6494C50.1576 25.5011 48.7028 23.3946 48.0078 22.3598L47.1276 20.8772C46.5345 19.8394 45.2435 17.6649 44.672 16.7074C42.7076 13.5198 40.4251 10.7152 39.5294 9.7113C39.344 9.56304 38.6182 8.32135 38.2785 7.71905C37.2036 5.12448 39.4985 5.86579 40.7803 6.56078C41.8552 7.00555 44.3168 9.34065 45.4133 10.4526C45.5616 10.6379 48.2241 13.6495 49.5367 15.1321C49.9074 15.651 51.7915 17.5105 52.6872 18.3753C53.0949 18.6719 53.9072 19.3637 54.2624 19.6726C54.8925 20.3027 56.8415 21.6031 57.7372 22.1745C61.3325 24.7691 65.6287 25.0471 67.3277 24.8617C72.2202 23.9351 71.9915 22.4062 71.2657 21.7575C70.4132 21.3869 69.0264 21.1707 68.4395 21.1089C67.4759 21.2201 65.7216 21.0626 64.9648 20.9699C64.0691 20.9699 61.5549 20.7104 58.6638 19.6726C55.7728 18.6348 54.1543 15.7807 53.7065 14.4835C52.2239 9.66499 55.9767 12.1669 56.0693 12.2132C56.1435 12.2503 56.7797 12.692 57.0886 12.9082C57.3659 13.2548 57.7457 13.3853 57.9328 13.4134C57.9341 13.4096 57.9482 13.4119 57.9689 13.4178C57.9578 13.4168 57.9458 13.4154 57.9328 13.4134C57.9274 13.4294 58.1515 13.5541 59.0808 13.9738C60.2298 14.4927 62.2158 14.7151 63.0652 14.7614L67.4666 15.1321L72.0069 15.5028L75.528 15.7807L76.5938 15.9661C77.9527 16.2749 81.4678 17.6896 84.6552 20.8772C87.8426 24.0648 89.6589 29.433 90.1684 31.7189C91.0209 34.5729 91.4811 34.3597 91.6048 33.8965C93.3098 27.1505 96.7629 22.3444 98.2764 20.7846C101.649 16.7815 106.909 15.5645 109.118 15.4564L110.878 15.3638C111.842 15.2155 113.504 15.1476 114.214 15.1321C114.844 15.1692 117.164 15.024 118.245 14.9468C118.319 14.8727 120.901 14.5143 122.183 14.3445C123.517 14.1591 124.963 13.2479 125.519 12.8155C125.889 12.4078 126.6 11.997 126.909 11.8426C129.207 10.9159 129.349 12.2287 129.132 13.0008C129.132 13.8534 128.298 15.6109 127.882 16.3831C125.991 19.3483 121.967 20.522 120.191 20.7382C120.191 20.8124 116.33 21.078 114.399 21.2015C109.729 21.3498 110.538 22.8695 111.527 23.6108C115.233 25.7606 119.866 24.6301 121.719 23.7961C122.016 23.7961 124.87 22.0664 126.26 21.2015C130.263 18.051 132.592 15.6263 133.256 14.8078C133.404 14.6966 136.066 11.6727 137.379 10.1746C139.047 8.35844 140.947 7.03952 141.688 6.60709C144.394 5.16154 144.545 6.56075 144.282 7.44106C143.949 8.51597 142.506 10.2982 141.827 11.0549C141.642 11.2402 140.329 13.0781 139.696 13.9738C138.028 16.2348 135.603 20.3212 134.599 22.0818C132.116 26.0107 129.642 28.383 128.715 29.0779C123.564 33.6741 116.901 35.07 114.214 35.1937C113.695 35.3048 112.361 35.3943 111.758 35.4254C109.535 35.4624 106.539 35.7497 105.319 35.8886C105.17 35.8886 103.898 36.0741 103.28 36.1666C101.834 36.278 100.238 36.8307 99.6199 37.0933C97.6184 37.9827 96.4386 38.9774 96.0988 39.3634C94.5051 40.8461 93.3035 43.1937 92.902 44.182C92.0495 46.4431 91.6819 48.0583 91.6048 48.5835Z" fill="white"/>
<path d="M151.233 3.63328C151.233 5.40518 149.796 6.84162 148.025 6.84162C146.253 6.84162 144.816 5.40518 144.816 3.63328C144.816 1.86135 146.253 0.424927 148.025 0.424927C149.796 0.424927 151.233 1.86135 151.233 3.63328ZM144.932 3.63328C144.932 5.34156 146.316 6.72639 148.025 6.72639C149.733 6.72639 151.118 5.34156 151.118 3.63328C151.118 1.925 149.733 0.540168 148.025 0.540168C146.316 0.540168 144.932 1.925 144.932 3.63328Z" fill="white"/>
<path d="M145.575 2.6244V2.35446H147.46V2.6244H146.67V4.8673H146.365V2.6244H145.575Z" fill="white"/>
<path d="M147.929 2.35446H148.292L149.146 4.4403H149.175L150.029 2.35446H150.393V4.8673H150.108V2.95813H150.083L149.298 4.8673H149.023L148.238 2.95813H148.213V4.8673H147.929V2.35446Z" fill="white"/>
</svg>
